Coordinates
version=1
nRows=25
nColumns=33
inDegrees=yes

Units are S.I. units (second, meters, Newtons, ...)
Angles are in degrees.

endheader
time	ground_thorax_rot_x	ground_thorax_rot_y	ground_thorax_rot_z	ground_thorax_tx	ground_thorax_ty	ground_thorax_tz	clav_prot_r	clav_elev_r	scapula_abduction_r	scapula_elevation_r	scapula_upward_rot_r	scapula_winging_r	shoulder_elv_r	plane_of_elev_r	axial_rot_r	elbow_flexion_r	pro_sup_r	wrist_flex_r	wrist_dev_r	clav_prot_l	clav_elev_l	scapula_abduction_l	scapula_elevation_l	scapula_upward_rot_l	scapula_winging_l	shoulder_elv_l	plane_of_elev_l	axial_rot_l	elbow_flexion_l	pro_sup_l	wrist_flex_l	wrist_dev_l	
4.7900	-21.954798	-37.072023	52.313926	-22.254182	827.623641	-41.454845	28.022776	-45.000000	41.993795	-45.000000	-45.000000	2055.440120	254.867223	159.582152	34.998916	2158.974859	164.192146	13.708306	15.397857	-3.491216	37.916653	-34.169394	-45.000000	-24.959219	3698.620090	-2984.696311	142.710632	180.000000	360.661583	405.277316	14.654669	-23.405258	
4.8000	-21.466924	-37.373538	53.074534	-19.262452	825.849894	-41.279586	28.055303	-45.000000	41.997916	-45.000000	-45.000000	2055.480979	254.768444	159.669172	35.281915	2158.999646	164.760847	13.633712	15.362446	-3.457098	37.855370	-33.976675	-45.000000	-25.230943	3698.540515	-2984.854471	142.643772	180.000000	360.546334	405.296901	14.691889	-23.197845	
4.8100	-20.980350	-37.655765	53.831274	-16.310947	824.069250	-41.094552	28.098665	-45.000000	41.987550	-45.000000	-45.000000	2055.511021	254.675694	159.749249	35.583952	2159.033635	165.349901	13.570962	15.313709	-3.428801	37.794058	-33.781097	-45.000000	-25.486066	3698.476830	-2985.017250	142.568001	180.000000	360.419282	405.325908	14.722325	-23.000571	
4.8200	-20.482149	-37.925908	54.600139	-13.401705	822.281132	-40.899269	28.156126	-45.000000	41.981248	-45.000000	-45.000000	2055.519548	254.585538	159.823116	35.912781	2159.078350	165.954262	13.515554	15.256976	-3.428530	37.728280	-33.571988	-45.000000	-25.728395	3698.405245	-2985.171609	142.501911	180.000000	360.284920	405.366000	14.748520	-22.813936	
4.8300	-19.981554	-38.179498	55.367891	-10.536317	820.485140	-40.693335	28.222195	-45.000000	41.973514	-45.000000	-45.000000	2055.514086	254.500105	159.894453	36.268860	2159.131371	166.566550	13.466622	15.192016	-3.441586	37.662908	-33.359999	-45.000000	-25.962070	3698.334998	-2985.326118	142.440298	180.000000	360.144432	405.413964	14.770725	-22.632005	
4.8400	-19.484599	-38.415640	56.126067	-7.715852	818.681025	-40.476463	28.295091	-45.000000	41.966226	-45.000000	-45.000000	2055.493633	254.414168	159.961837	36.648238	2159.190241	167.179445	13.423093	15.122986	-3.467436	37.596246	-33.145908	-45.000000	-26.187352	3698.259983	-2985.474546	142.385132	180.000000	360.000395	405.464136	14.793145	-22.455832	
4.8500	-19.001201	-38.632191	56.863043	-4.941799	816.869008	-40.248546	28.372573	-45.000000	41.957710	-45.000000	-45.000000	2055.462350	254.324653	160.027771	37.050196	2159.251287	167.786870	13.383397	15.052439	-3.499405	37.530573	-32.937386	-45.000000	-26.406798	3698.186787	-2985.621303	142.332804	180.000000	359.853492	405.510980	14.817287	-22.283528	
4.8600	-18.529819	-38.829891	57.579896	-2.216032	815.049480	-40.009768	28.452088	-45.000000	41.950344	-45.000000	-45.000000	2055.421209	254.232282	160.094150	37.470264	2159.312810	168.381740	13.344680	14.981915	-3.536689	37.464645	-32.730464	-45.000000	-26.624656	3698.109293	-2985.761734	142.283530	180.000000	359.708744	405.550716	14.842084	-22.111989	
4.8700	-18.067793	-39.009506	58.280951	0.458770	813.222966	-39.760671	28.530897	-45.000000	41.941007	-45.000000	-45.000000	2055.373465	254.142082	160.164386	37.911560	2159.373290	168.955905	13.304484	14.909250	-3.575096	37.396780	-32.522628	-45.000000	-26.849359	3698.029291	-2985.899618	142.233566	180.000000	359.569616	405.579822	14.863994	-21.935286	
4.8800	-17.609162	-39.172666	58.973175	3.079604	811.389712	-39.502230	28.608001	-45.000000	41.930621	-45.000000	-45.000000	2055.316424	254.056597	160.236044	38.373232	2159.433308	169.501140	13.261285	14.835209	-3.614083	37.325661	-32.308043	-45.000000	-27.091864	3697.940140	-2986.031717	142.182950	180.000000	359.440616	405.595403	14.882181	-21.755946	
4.8900	-17.153635	-39.320055	59.659467	5.643396	809.549544	-39.235822	28.684373	-45.000000	41.916886	-45.000000	-45.000000	2055.250311	253.977346	160.309660	38.857916	2159.491867	170.011645	13.215248	14.759130	-3.653864	37.249481	-32.085345	-45.000000	-27.357074	3697.842265	-2986.158266	142.130212	180.000000	359.321365	405.597116	14.895034	-21.575473	
4.9000	-16.698499	-39.452110	60.342838	8.147233	807.701962	-38.963235	28.759234	-45.000000	41.900981	-45.000000	-45.000000	2055.173985	253.905740	160.383337	39.362857	2159.550254	170.483700	13.166275	14.681940	-3.693790	37.169105	-31.852319	-45.000000	-27.651178	3697.732165	-2986.277704	142.074869	180.000000	359.213398	405.584787	14.902248	-21.395579	
4.9100	-16.247638	-39.568581	61.021683	10.588513	805.846310	-38.686448	28.833766	-45.000000	41.882373	-45.000000	-45.000000	2055.087214	253.840772	160.457211	39.887949	2159.608156	170.916574	13.115702	14.603904	-3.734003	37.082455	-31.610656	-45.000000	-27.973991	3697.610503	-2986.389821	142.017117	180.000000	359.115491	405.556972	14.904525	-21.216541	
4.9200	-15.804246	-39.670255	61.691035	12.965041	803.982091	-38.407443	28.907492	-45.000000	41.864012	-45.000000	-45.000000	2054.989949	253.779577	160.528681	40.426818	2159.666797	171.312381	13.063955	14.527439	-3.773932	36.991346	-31.362666	-45.000000	-28.327324	3697.475713	-2986.493024	141.958217	180.000000	359.026140	405.511219	14.904108	-21.040631	
4.9300	-15.375011	-39.756975	62.345237	15.274965	802.109294	-38.127883	28.981636	-45.000000	41.846442	-45.000000	-45.000000	2054.883846	253.718518	160.599342	40.975819	2159.726544	171.675653	13.011489	14.453451	-3.813259	36.895840	-31.112203	-45.000000	-28.705239	3697.329062	-2986.586483	141.899381	180.000000	358.942497	405.445037	14.902868	-20.867772	
4.9400	-14.958392	-39.829177	62.985252	17.516688	800.228766	-37.848983	29.054183	-45.000000	41.828311	-45.000000	-45.000000	2054.769761	253.660413	160.670872	41.536170	2159.786851	172.009553	12.957762	14.380117	-3.851360	36.796713	-30.857145	-45.000000	-29.107460	3697.169510	-2986.670625	141.839964	180.000000	358.865604	405.356198	14.899503	-20.695382	
4.9500	-14.556493	-39.887544	63.610370	19.688842	798.342354	-37.571385	29.126079	-45.000000	41.807531	-45.000000	-45.000000	2054.647239	253.605911	160.742095	42.113711	2159.846171	172.314362	12.903095	14.306448	-3.887872	36.692344	-30.599579	-45.000000	-29.528568	3696.999364	-2986.745253	141.780222	180.000000	358.793889	405.243149	14.895722	-20.523490	
4.9600	-14.167849	-39.933992	64.219681	21.790492	796.452869	-37.295329	29.195550	-45.000000	41.783126	-45.000000	-45.000000	2054.516004	253.558601	160.815238	42.712694	2159.902787	172.587230	12.846380	14.231152	-3.923215	36.583351	-30.336687	-45.000000	-29.967400	3696.819454	-2986.813075	141.721460	180.000000	358.727164	405.105325	14.890635	-20.350213	
4.9700	-13.793614	-39.968259	64.813973	23.820890	794.564265	-37.020962	29.264722	-45.000000	41.755518	-45.000000	-45.000000	2054.377982	253.516048	160.886827	43.334112	2159.958261	172.823268	12.786502	14.155181	-3.956688	36.471314	-30.074003	-45.000000	-30.416453	3696.631792	-2986.872624	141.662659	180.000000	358.662945	404.942520	14.887198	-20.177069	
4.9800	-13.431997	-39.991906	65.392479	25.779746	792.681333	-36.748738	29.332438	-45.000000	41.725426	-45.000000	-45.000000	2054.235577	253.480461	160.958680	43.980866	2160.010617	173.016687	12.722935	14.077793	-3.989625	36.356299	-29.811774	-45.000000	-30.872854	3696.438238	-2986.926370	141.604082	180.000000	358.600569	404.755300	14.884330	-20.002539	
4.9900	-13.086520	-40.004609	65.952859	27.666912	790.809771	-36.479761	29.401362	-45.000000	41.694850	-45.000000	-45.000000	2054.090273	253.446841	161.026617	44.647694	2160.063949	173.161301	12.654894	14.001586	-4.021473	36.241556	-29.557049	-45.000000	-31.325461	3696.244024	-2986.972784	141.545764	180.000000	358.535829	404.544214	14.886138	-19.829637	
5.0000	-12.756638	-40.007298	66.491724	29.482650	788.955698	-36.215932	29.468144	-45.000000	41.664416	-45.000000	-45.000000	2053.942606	253.418372	161.095541	45.332531	2160.116354	173.253116	12.582524	13.925389	-4.054144	36.126089	-29.305926	-45.000000	-31.772943	3696.049761	-2987.015064	141.489201	180.000000	358.469695	404.310504	14.889484	-19.656041	
5.0100	-12.441809	-39.999623	67.011139	31.227173	787.125725	-35.959940	29.533830	-45.000000	41.635013	-45.000000	-45.000000	2053.791820	253.393312	161.161624	46.034411	2160.170183	173.289493	12.506831	13.849920	-4.086752	36.013008	-29.060797	-45.000000	-32.209664	3695.857681	-2987.051398	141.433023	180.000000	358.399985	404.055606	14.896488	-19.483791	
5.0200	-12.138692	-39.982712	67.510986	32.900913	785.326392	-35.714950	29.595312	-45.000000	41.605312	-45.000000	-45.000000	2053.637248	253.377192	161.229140	46.757801	2160.221680	173.269377	12.429614	13.772458	-4.121485	35.900095	-28.816647	-45.000000	-32.638362	3695.667816	-2987.085549	141.377075	180.000000	358.327989	403.781540	14.903613	-19.310748	
5.0300	-11.845986	-39.957206	67.992923	34.504045	783.564270	-35.484206	29.653699	-45.000000	41.574531	-45.000000	-45.000000	2053.477054	253.369172	161.294772	47.502608	2160.273319	173.192063	12.351784	13.693389	-4.157410	35.790025	-28.574199	-45.000000	-33.054073	3695.483554	-2987.117842	141.321032	180.000000	358.250768	403.490213	14.913019	-19.138942	
